<svg width="24" height="21" viewBox="0 0 24 21" fill="none" xmlns="http://www.w3.org/2000/svg">
<path d="M1 19.99H23" stroke="#738294" stroke-width="1.5" stroke-miterlimit="10" stroke-linecap="round" stroke-linejoin="round"/>
<path d="M19.78 20V15.54" stroke="#738294" stroke-width="1.5" stroke-miterlimit="10" stroke-linecap="round" stroke-linejoin="round"/>
<path d="M19.8 8.88C18.58 8.88 17.6 9.86002 17.6 11.08V13.35C17.6 14.57 18.58 15.55 19.8 15.55C21.02 15.55 22 14.57 22 13.35V11.08C22 9.86002 21.02 8.88 19.8 8.88Z" stroke="#738294" stroke-width="1.5" stroke-miterlimit="10" stroke-linecap="round" stroke-linejoin="round"/>
<path d="M2.09998 19.99V4.02002C2.09998 2.01002 3.10003 1 5.09003 1H11.32C13.31 1 14.3 2.01002 14.3 4.02002V19.99" stroke="#738294" stroke-width="1.5" stroke-miterlimit="10" stroke-linecap="round" stroke-linejoin="round"/>
<path d="M5.79999 6.23999H10.75" stroke="#738294" stroke-width="1.5" stroke-miterlimit="10" stroke-linecap="round" stroke-linejoin="round"/>
<path d="M5.79999 9.98999H10.75" stroke="#738294" stroke-width="1.5" stroke-miterlimit="10" stroke-linecap="round" stroke-linejoin="round"/>
<path d="M8.25 19.99V16.24" stroke="#738294" stroke-width="1.5" stroke-miterlimit="10" stroke-linecap="round" stroke-linejoin="round"/>
</svg>
