<svg width="24" height="22" viewBox="0 0 24 22" fill="none" xmlns="http://www.w3.org/2000/svg">
<path d="M21.9331 5.70996L18.5631 19.24C18.3231 20.25 17.4231 20.95 16.3831 20.95H3.24306C1.73306 20.95 0.653075 19.4699 1.10308 18.0199L5.31307 4.5C5.60307 3.56 6.47308 2.90991 7.45308 2.90991H19.7531C20.7031 2.90991 21.4931 3.48992 21.8231 4.28992C22.0131 4.71992 22.0531 5.20996 21.9331 5.70996Z" stroke="#738294" stroke-width="1.5" stroke-miterlimit="10"/>
<path d="M16.0031 20.95H20.7831C22.0731 20.95 23.083 19.8599 22.993 18.5699L22.0031 4.94995" stroke="#738294" stroke-width="1.5" stroke-miterlimit="10" stroke-linecap="round" stroke-linejoin="round"/>
<path d="M9.68304 5.32996L10.7231 1.01001" stroke="#738294" stroke-width="1.5" stroke-miterlimit="10" stroke-linecap="round" stroke-linejoin="round"/>
<path d="M16.3831 5.33997L17.3231 1" stroke="#738294" stroke-width="1.5" stroke-miterlimit="10" stroke-linecap="round" stroke-linejoin="round"/>
<path d="M7.70306 10.95H15.7031" stroke="#738294" stroke-width="1.5" stroke-miterlimit="10" stroke-linecap="round" stroke-linejoin="round"/>
<path d="M6.70306 14.95H14.7031" stroke="#738294" stroke-width="1.5" stroke-miterlimit="10" stroke-linecap="round" stroke-linejoin="round"/>
</svg>
