<svg width="22" height="24" viewBox="0 0 22 24" fill="none" xmlns="http://www.w3.org/2000/svg">
<g opacity="0.5">
<path d="M10.7142 5.84766V9.48339" stroke="#727378" stroke-width="1.5" stroke-miterlimit="10" stroke-linecap="round"/>
<path d="M10.7361 1C6.71821 1 3.46461 4.2536 3.46461 8.27146V10.5643C3.46461 11.3067 3.1589 12.4203 2.77677 13.0536L1.39017 15.3682C0.538555 16.7985 1.12813 18.3926 2.70034 18.9166C7.9192 20.6526 13.5639 20.6526 18.7827 18.9166C20.2567 18.4253 20.8899 16.7002 20.0929 15.3682L18.7063 13.0536C18.3242 12.4203 18.0185 11.2958 18.0185 10.5643V8.27146C18.0075 4.27543 14.7321 1 10.7361 1Z" stroke="#727378" stroke-width="1.5" stroke-miterlimit="10" stroke-linecap="round"/>
<path d="M14.35 19.3643C14.35 21.3623 12.7123 23 10.7143 23C9.72074 23 8.80361 22.5851 8.14853 21.93C7.49344 21.2749 7.07855 20.3578 7.07855 19.3643" stroke="#727378" stroke-width="1.5" stroke-miterlimit="10"/>
</g>
</svg>
