<svg width="26" height="26" viewBox="0 0 26 26" fill="none" xmlns="http://www.w3.org/2000/svg">
<g opacity="0.5">
<path d="M13.144 13.9359C13.06 13.9239 12.952 13.9239 12.856 13.9359C10.744 13.8639 9.06396 12.1359 9.06396 10.0119C9.06396 7.83993 10.816 6.07593 13 6.07593C15.172 6.07593 16.936 7.83993 16.936 10.0119C16.924 12.1359 15.256 13.8639 13.144 13.9359Z" stroke="#727378" stroke-width="1.5" stroke-linecap="round" stroke-linejoin="round"/>
<path d="M21.088 21.8559C18.952 23.8119 16.12 24.9999 13 24.9999C9.87999 24.9999 7.04799 23.8119 4.91199 21.8559C5.03199 20.7279 5.75199 19.6239 7.03599 18.7599C10.324 16.5759 15.7 16.5759 18.964 18.7599C20.248 19.6239 20.968 20.7279 21.088 21.8559Z" stroke="#727378" stroke-width="1.5" stroke-linecap="round" stroke-linejoin="round"/>
<path d="M13 25C19.6274 25 25 19.6274 25 13C25 6.37258 19.6274 1 13 1C6.37258 1 1 6.37258 1 13C1 19.6274 6.37258 25 13 25Z" stroke="#727378" stroke-width="1.5" stroke-linecap="round" stroke-linejoin="round"/>
</g>
</svg>
