<svg width="27" height="26" viewBox="0 0 27 26" fill="none" xmlns="http://www.w3.org/2000/svg">
<g opacity="0.5">
<path d="M13.4927 16.8176C15.5627 16.8176 17.2408 15.11 17.2408 13.0035C17.2408 10.8971 15.5627 9.18945 13.4927 9.18945C11.4227 9.18945 9.74463 10.8971 9.74463 13.0035C9.74463 15.11 11.4227 16.8176 13.4927 16.8176Z" stroke="#727378" stroke-width="1.5" stroke-miterlimit="10" stroke-linecap="round" stroke-linejoin="round"/>
<path d="M1 14.119V11.8814C1 10.5592 2.06197 9.46583 3.37381 9.46583C5.63518 9.46583 6.55972 7.8385 5.42279 5.84247C4.77311 4.69825 5.16042 3.21076 6.29735 2.54966L8.45877 1.29101C9.44578 0.693478 10.7201 1.04946 11.3073 2.05383L11.4448 2.29539C12.5692 4.29141 14.4183 4.29141 15.5552 2.29539L15.6927 2.05383C16.2799 1.04946 17.5542 0.693478 18.5412 1.29101L20.7026 2.54966C21.8396 3.21076 22.2269 4.69825 21.5772 5.84247C20.4403 7.8385 21.3648 9.46583 23.6262 9.46583C24.9255 9.46583 26 10.5465 26 11.8814V14.119C26 15.4412 24.938 16.5346 23.6262 16.5346C21.3648 16.5346 20.4403 18.1619 21.5772 20.1579C22.2269 21.3149 21.8396 22.7896 20.7026 23.4507L18.5412 24.7094C17.5542 25.3069 16.2799 24.9509 15.6927 23.9466L15.5552 23.705C14.4308 21.709 12.5817 21.709 11.4448 23.705L11.3073 23.9466C10.7201 24.9509 9.44578 25.3069 8.45877 24.7094L6.29735 23.4507C5.16042 22.7896 4.77311 21.3022 5.42279 20.1579C6.55972 18.1619 5.63518 16.5346 3.37381 16.5346C2.06197 16.5346 1 15.4412 1 14.119Z" stroke="#727378" stroke-width="1.5" stroke-miterlimit="10" stroke-linecap="round" stroke-linejoin="round"/>
</g>
</svg>
